{"title":"The Dark Room S01","uid":15415140,"size":1105625304,"categoryP":"video","categoryS":"tv_shows","magnet":"?xt=urn:btih:52bea6652432355e10b983dbec11c26f68a8d264&amp;dn=The+Dark+Room+S01&amp;tr=udp%3A%2F%2Ftracker.leechers-paradise.org%3A6969&amp;tr=udp%3A%2F%2Fzer0day.ch%3A1337&amp;tr=udp%3A%2F%2Fopen.demonii.com%3A1337&amp;tr=udp%3A%2F%2Ftracker.coppersurfer.tk%3A6969&amp;tr=udp%3A%2F%2Fexodus.desync.com%3A6969","seeders":3,"leechers":1,"uploader":"RedBaron58","files":2,"time":1469583607,"description":"The Dark Room (Minette Walters 1999) S01 x264 mp4\r\n  \nhttp://www.imdb.com/title/tt0186945/\r\n\r\nThank you for your kind comments and feedback on my other torrents, your feedback is welcome.\r\n\r\n\r\nAbout the Series:\r\nIn hospital, photographer Jinx Kingsley wakes from a coma after a car crash, a failed suicide \r\nattempt, prompted by her fiance Leo jilting her to elope with Jinx's lifelong best friend, Meg. \r\nThe discovery of Leo and Meg's bodies brutally murdered in the same manner as Jinx's first \r\nhusband makes Jinx the prime suspect. \r\nThen, with the help of eminent neuroscientist Dr.Alan Protheroe, some memories begin to surface. \r\nMemories of desperation and paralysing terror.\r\n\r\n\r\nI hope you enjoy.\r\n\r\n\r\nTechnical: (All episodes are encoded to the same settings)\r\n\r\nGeneral\r\nComplete name                            : I:The Dark Room S01The Dark Room S01E01 x264 RB58.mp4\r\nFormat                                   : MPEG-4\r\nFormat profile                           : Base Media / Version 2\r\nCodec ID                                 : mp42\r\nFile size                                : 523 MiB\r\nDuration                                 : 1h 13mn\r\nOverall bit rate mode                    : Variable\r\nOverall bit rate                         : 1 000 Kbps\r\nEncoded date                             : UTC 2016-07-18 23:18:21\r\nTagged date                              : UTC 2016-07-18 23:21:03\r\nWriting application                      : HandBrake 0.9.8 2012071700\r\n\r\nVideo\r\nID                                       : 1\r\nFormat                                   : AVC\r\nFormat/Info                              : Advanced Video Codec\r\nFormat profile                           :   \r\nFormat settings, CABAC                   : Yes\r\nFormat settings, ReFrames                : 4 frames\r\nCodec ID                                 : avc1\r\nCodec ID/Info                            : Advanced Video Coding\r\nDuration                                 : 1h 13mn\r\nBit rate                                 : 900 Kbps\r\nWidth                                    : 704 pixels\r\nHeight                                   : 576 pixels\r\nDisplay aspect ratio                     : 1.738\r\nFrame rate mode                          : Constant\r\nFrame rate                               : 25.000 fps\r\nStandard                                 : PAL\r\nColor space                              : YUV\r\nChroma subsampling                       : 4:2:0\r\nBit depth                                : 8 bits\r\nScan type                                : Progressive\r\nBits/(Pixel*Frame)                       : 0.089\r\nStream size                              : 471 MiB (90%)\r\nWriting library                          : x264 core 120\r\nEncoding settings                        : cabac=1 / ref=1 / deblock=1:0:0\r\nEncoded date                             : UTC 2016-07-18 23:18:21\r\nTagged date                              : UTC 2016-07-18 23:21:03\r\nColor range                              : Limited\r\nColor primaries                          : BT.601 NTSC\r\nTransfer characteristics                 : BT.709\r\nMatrix coefficients                      : BT.601\r\n\r\nAudio\r\nID                                       : 2\r\nFormat                                   : AAC\r\nFormat/Info                              : Advanced Audio Codec\r\nFormat profile                           : LC\r\nCodec ID                                 : 40\r\nDuration                                 : 1h 13mn\r\nBit rate mode                            : Variable\r\nBit rate                                 : 96.0 Kbps\r\nMaximum bit rate                         : 125 Kbps\r\nChannel(s)                               : 2 channels\r\nChannel positions                        : Front: L R\r\nSampling rate                            : 48.0 KHz\r\nCompression mode                         : Lossy\r\nStream size                              : 50.2 MiB (10%)\r\nTitle                                    : Stereo\r\nLanguage                                 : English","torrent":{"xt":"urn:btih:52bea6652432355e10b983dbec11c26f68a8d264","amp;dn":"The+Dark+Room+S01","amp;tr":["udp%3A%2F%2Ftracker.leechers-paradise.org%3A6969","udp%3A%2F%2Fzer0day.ch%3A1337","udp%3A%2F%2Fopen.demonii.com%3A1337","udp%3A%2F%2Ftracker.coppersurfer.tk%3A6969","udp%3A%2F%2Fexodus.desync.com%3A6969"],"infoHash":"52bea6652432355e10b983dbec11c26f68a8d264","infoHashBuffer":{"type":"Buffer","data":[82,190,166,101,36,50,53,94,16,185,131,219,236,17,194,111,104,168,210,100]},"announce":[],"urlList":[]}}